# xmcd
#
# Track frame offsets: 
#        150
#        14693
#        27353
#        51128
#        62833
#        80007
#        92250
#        105120
#        120437
#        127501
#        145699
#        152282
#        164999
#
# Disc length: 2394 seconds
#
# Revision: 0
# Processed by: cddbd v1.5.2PL0 Copyright (c) Steve Scherf et al.
# Submitted via: ExactAudioCopyFreeDBPlugin 1.0
#
DISCID=9609580d
DTITLE=Scott H. Biram - The Bad Testament
DYEAR=2017
DGENRE=Blues
TTITLE0=Set Me Free
TTITLE1=Still Around
TTITLE2=Red Wine
TTITLE3=Train Wrecker
TTITLE4=Long Old Time
TTITLE5=Swift Driftin'
TTITLE6=Righteous Ways
TTITLE7=Crippled and Crazy
TTITLE8=Feel So Wrong
TTITLE9=True Religion
TTITLE10=Hit The River
TTITLE11=Pressin' On
TTITLE12=What Doesn't Kill You...
EXTD=
EXTT0=
EXTT1=
EXTT2=
EXTT3=
EXTT4=
EXTT5=
EXTT6=
EXTT7=
EXTT8=
EXTT9=
EXTT10=
EXTT11=
EXTT12=
PLAYORDER=
